<svg width="21" height="26" viewBox="0 0 21 26" fill="none" xmlns="http://www.w3.org/2000/svg">
<path d="M3.75538 3.5393L3.60971 1.5H16.3182V3.13405L3.75538 3.5393Z" stroke="#1E1E1E" stroke-linejoin="round"/>
<path d="M16.8182 3.50966V1.21875H3.34545L3.56364 3.78239M16.8182 3.50966L20.0909 7.70966M16.8182 3.50966L3.56364 3.78239M20.0909 7.70966V24.346L6.01818 25.0006M20.0909 7.70966L5.8 8.03693M6.01818 25.0006L5.8 8.03693M6.01818 25.0006L1 22.8733V7.32784M5.8 8.03693L3.56364 3.78239M5.8 8.03693L1 7.32784M3.56364 3.78239L1 7.32784" stroke="#1E1E1E"/>
<path d="M1 22.7555V15.6039C1 15.6039 1.4115 15.695 1.86489 15.6039C2.88664 15.3984 2.58295 14.0342 3.59467 13.7914C5.52824 13.3274 5.21634 16.3386 7.27045 17.2693C9.05532 18.078 10.9173 16.5201 12.8922 16.7795C16.6221 17.2693 16.0316 19.0807 18.0816 19.1797C19.0208 19.225 19.8114 18.8368 19.8114 18.8368V24.1761L5.91906 24.6659L1 22.7555Z" fill="#15FF00" fill-opacity="0.5" stroke="#696969" stroke-opacity="0.25" stroke-width="2"/>
<path d="M1 22.9674V16.6079C1 16.6079 1.4115 16.689 1.86489 16.6079C2.88664 16.4252 2.58295 15.2121 3.59467 14.9962C5.52824 14.5836 5.38416 17.5526 7.27045 18.0888C9.15233 18.6238 10.9391 17.3237 12.8922 17.6533C14.9016 17.9923 15.3829 19.6996 17.4329 19.7876C18.3721 19.828 19.8114 19.4827 19.8114 19.4827V24.2305L5.91906 24.6661L1 22.9674Z" fill="#87B5DF"/>
<path d="M1 13.3271V22.7635L5.9495 24.8908L20.0909 24.3453V13.3271" stroke="#1E1E1E"/>
<path d="M13.7935 5.50864L13.7713 5.5577L13.7601 5.61036C13.7268 5.76659 13.5566 5.98349 13.0946 6.12653C12.6503 6.26411 12.0363 6.29291 11.3675 6.15019C10.6987 6.00747 10.1499 5.73055 9.80044 5.42357C9.43707 5.1044 9.3703 4.83694 9.40364 4.68071L9.412 4.64152L9.41401 4.6015C9.48857 3.12061 9.94706 2.62667 10.3665 2.441C10.8651 2.22035 11.5389 2.30943 12.2956 2.47091C12.9819 2.61737 13.5701 2.90521 13.8789 3.34475C14.1603 3.7453 14.2952 4.39958 13.7935 5.50864Z" fill="#C7FFDD" stroke="#1E1E1E"/>
<path d="M14.1964 3.75615C14.1631 3.91238 13.9929 4.12929 13.5309 4.27233C13.0866 4.40991 12.4726 4.4387 11.8038 4.29598C11.135 4.15326 10.5862 3.87635 10.2368 3.56937C9.87338 3.25019 9.80661 2.98273 9.83995 2.82651C9.87328 2.67028 10.0434 2.45337 10.5054 2.31033C10.9498 2.17276 11.5638 2.14396 12.2326 2.28668C12.9014 2.4294 13.4501 2.70631 13.7996 3.01329C14.163 3.33247 14.2297 3.59993 14.1964 3.75615Z" fill="#C7FFDD" stroke="#1E1E1E"/>
<ellipse cx="10.7892" cy="11.628" rx="1.06193" ry="1.13778" fill="#1E1E1E"/>
<path d="M13.0545 12.8984C13.0545 12.8984 13.4551 13.9224 14.0348 13.8787C14.5801 13.8375 14.875 12.8984 14.875 12.8984" stroke="#1E1E1E"/>
<ellipse cx="16.5284" cy="11.3304" rx="0.910227" ry="0.84021" fill="#1E1E1E"/>
<path d="M5.69073 7.98083L5.96345 16.5445L5.79982 24.999" stroke="#1E1E1E"/>
</svg>
