<svg width="180" height="224" viewBox="0 0 180 224" fill="none" xmlns="http://www.w3.org/2000/svg">
<path d="M23.9289 26.9695L22.074 1H146V23.0317L23.9289 26.9695Z" stroke="#15FF00" stroke-width="2" stroke-linejoin="round"/>
<path d="M147 23V2H23.5L25.5 25.5M147 23L177 61.5M147 23L25.5 25.5M177 61.5V214L48 220M177 61.5L46 64.5M48 220L46 64.5M48 220L2 200.5V58M46 64.5L25.5 25.5M46 64.5L2 58M25.5 25.5L2 58" stroke="#15FF00" stroke-width="3"/>
<path d="M2 195V122C2 122 5.80623 122.931 10 122C19.4509 119.903 16.6419 105.978 26 103.5C43.885 98.7635 41 129.5 60 139C76.5095 147.255 93.7326 131.353 112 134C146.5 139 141.038 157.49 160 158.5C168.687 158.963 176 155 176 155V209.5L47.5 214.5L2 195Z" fill="#15FF00" fill-opacity="0.5" stroke="#696969" stroke-opacity="0.25" stroke-width="2"/>
<path d="M2 199.404V126.044C2 126.044 5.8281 126.979 10.046 126.044C19.5512 123.936 16.726 109.943 26.1379 107.452C44.1257 102.692 42.7854 136.942 60.3333 143.127C77.8402 149.298 94.4619 134.301 112.632 138.103C131.325 142.013 135.803 161.708 154.874 162.724C163.611 163.189 177 159.206 177 159.206V213.975L47.7615 219L2 199.404Z" fill="#87B5DF" stroke="#696969" stroke-width="2"/>
<path d="M2 113V199.5L47.3704 219L177 214V113" stroke="#15FF00" stroke-width="3"/>
<path d="M122.083 42.5995L122.017 42.7466L121.983 42.9046C121.34 45.9168 118.497 48.4774 113.779 49.9381C109.114 51.3825 102.94 51.6224 96.3917 50.225C89.8433 48.8276 84.3052 46.0884 80.6359 42.8655C76.925 39.606 75.3751 36.1081 76.0179 33.0959L76.043 32.9783L76.049 32.8583C76.7601 18.7341 81.2378 12.7679 86.6121 10.3892C92.2235 7.90553 99.3743 9.01377 106.186 10.4675C112.787 11.876 119.093 14.7577 122.58 19.7205C125.984 24.5663 126.969 31.7992 122.083 42.5995Z" fill="#C7FFDD" stroke="#15FF00" stroke-width="3"/>
<path d="M125.982 25.9043C125.34 28.9165 122.497 31.4771 117.779 32.9378C113.113 34.3822 106.94 34.6221 100.391 33.2247C93.8428 31.8273 88.3047 29.0882 84.6354 25.8652C80.9245 22.6057 79.3746 19.1078 80.0174 16.0956C80.6602 13.0834 83.5029 10.5229 88.2211 9.06207C92.8864 7.61768 99.0603 7.37781 105.609 8.7752C112.157 10.1726 117.695 12.9118 121.364 16.1347C125.075 19.3942 126.625 22.8922 125.982 25.9043Z" fill="#C7FFDD" stroke="#15FF00" stroke-width="3"/>
<ellipse cx="89" cy="94.5" rx="7" ry="7.5" fill="#15FF00"/>
<path d="M112.5 103.5C112.5 103.5 115.36 110.812 119.5 110.5C123.394 110.206 125.5 103.5 125.5 103.5" stroke="#15FF00" stroke-width="3"/>
<ellipse cx="142.5" cy="93" rx="6.5" ry="6" fill="#15FF00"/>
<g filter="url(#filter0_i_1337_43)">
<path d="M55.5671 176.862L66.0141 176.664L75.2859 198.106L75.6949 198.098L84.1472 176.32L94.5942 176.122L95.256 211.025L87.0415 211.181L86.6351 189.741L86.3453 189.747L78.3628 211.124L73.1137 211.223L64.3243 190.045L64.0346 190.051L64.4433 211.609L56.2289 211.765L55.5671 176.862ZM108.292 175.862L108.954 210.765L100.518 210.925L99.8561 176.022L108.292 175.862ZM114.25 210.665L113.588 175.762L122.024 175.602L122.556 203.654L137.076 203.379L137.206 210.23L114.25 210.665ZM141.573 210.147L140.911 175.244L149.347 175.084L149.627 189.843L150.087 189.834L161.345 174.857L171.281 174.668L159.203 190.479L172.164 209.567L162.075 209.758L153.123 196.204L149.83 200.528L150.009 209.987L141.573 210.147Z" fill="white"/>
</g>
<path d="M44.9983 63.9942L47.4983 142.494L45.9983 219.994" stroke="#15FF00" stroke-width="2"/>
<path d="M179 156.5C179 158.184 178.683 159.66 178.213 160.677C177.705 161.779 177.203 162 177 162C176.797 162 176.295 161.779 175.787 160.677C175.317 159.66 175 158.184 175 156.5C175 154.816 175.317 153.34 175.787 152.323C176.295 151.221 176.797 151 177 151C177.203 151 177.705 151.221 178.213 152.323C178.683 153.34 179 154.816 179 156.5Z" stroke="#15FF00" stroke-width="2"/>
<path d="M48.9987 115.43C49.0575 117.113 48.7921 118.599 48.3583 119.632C47.8883 120.752 47.395 120.99 47.1919 120.997C46.9887 121.004 46.48 120.801 45.9331 119.717C45.4283 118.717 45.0599 117.253 45.0011 115.57C44.9424 113.887 45.2077 112.401 45.6415 111.368C46.1115 110.248 46.6048 110.01 46.808 110.003C47.0111 109.996 47.5198 110.199 48.0668 111.283C48.5716 112.283 48.9399 113.747 48.9987 115.43Z" stroke="#15FF00" stroke-width="2"/>
<defs>
<filter id="filter0_i_1337_43" x="55.5674" y="174.664" width="116.597" height="38.1008" filterUnits="userSpaceOnUse" color-interpolation-filters="sRGB">
<feFlood flood-opacity="0" result="BackgroundImageFix"/>
<feBlend mode="normal" in="SourceGraphic" in2="BackgroundImageFix" result="shape"/>
<feColorMatrix in="SourceAlpha" type="matrix" values="0 0 0 0 0 0 0 0 0 0 0 0 0 0 0 0 0 0 127 0" result="hardAlpha"/>
<feOffset dy="1"/>
<feGaussianBlur stdDeviation="1"/>
<feComposite in2="hardAlpha" operator="arithmetic" k2="-1" k3="1"/>
<feColorMatrix type="matrix" values="0 0 0 0 0 0 0 0 0 0 0 0 0 0 0 0 0 0 0.25 0"/>
<feBlend mode="normal" in2="shape" result="effect1_innerShadow_1337_43"/>
</filter>
</defs>
</svg>
