<svg width="14" height="14" viewBox="0 0 14 14" fill="none" xmlns="http://www.w3.org/2000/svg">
<circle cx="7" cy="7" r="7" fill="#333333"/>
<path d="M8.8415 4.52669C8.8415 5.68253 7.98188 6.55338 7.00003 6.55338C6.01819 6.55338 5.15857 5.68253 5.15857 4.52669C5.15857 3.37085 6.01819 2.5 7.00003 2.5C7.98188 2.5 8.8415 3.37085 8.8415 4.52669Z" stroke="white"/>
<path d="M9.36784 7.75084C9.95516 8.3292 10.3609 9.17409 10.4999 10.2296C10.496 10.7637 10.3934 11.0402 10.284 11.1877C10.1836 11.3232 10.0282 11.416 9.74478 11.4641C9.44701 11.5146 9.06999 11.5054 8.58783 11.4756C8.49394 11.4698 8.39644 11.4632 8.2959 11.4565C7.89992 11.4299 7.4567 11.4001 7 11.4001C6.5433 11.4001 6.10009 11.4299 5.7041 11.4565C5.60356 11.4632 5.50606 11.4698 5.41217 11.4756C4.93001 11.5054 4.55299 11.5146 4.25522 11.4641C3.97176 11.416 3.81643 11.3232 3.71598 11.1877C3.6072 11.041 3.50508 10.7668 3.50018 10.2383C3.82775 8.29901 5.12785 6.83105 7 6.83105C7.98075 6.83105 8.77929 7.17127 9.36784 7.75084Z" fill="#333333" stroke="white"/>
</svg>
